<svg width="34" height="40" viewBox="0 0 34 40" fill="none" xmlns="http://www.w3.org/2000/svg">
<path d="M14.5468 39.1773C10.1011 34.8294 6.07221 30.8343 1.62653 26.4864C6.11628 22.4758 10.1892 18.1125 14.679 14.1019C12.0539 19.6536 9.02651 25.5334 6.40148 31.0852C6.53038 30.8126 14.153 34.2333 14.8175 34.5474C15.494 34.8673 17.7325 35.6183 17.5651 36.388C17.4662 36.8429 16.8091 37.2442 16.4553 37.5465C15.8191 38.0901 15.1829 38.6337 14.5468 39.1773Z" fill="#F85F4C"/>
<path d="M23.8478 38.0435C18.5251 35.6303 13.6438 33.6423 8.32118 31.2291C7.97038 31.07 7.54082 31.0112 7.23266 30.7674C6.75254 30.3876 7.19968 29.9853 7.42685 29.5435C8.07912 28.2751 8.72302 27.0023 9.3622 25.7272C10.6199 23.2183 11.8589 20.7001 13.1116 18.1888C14.0922 16.2229 15.0814 14.2613 16.0922 12.3108C16.1801 12.1412 16.3823 12.0651 16.5603 12.1344L16.9305 12.2786C16.9439 12.2839 16.9573 12.2896 16.9703 12.2959C17.9088 12.7428 18.8475 13.1893 19.7864 13.6355C22.3465 14.8521 24.9078 16.0662 27.4684 17.2815C28.7582 17.8937 30.0478 18.5061 31.337 19.1193C31.7227 19.3027 32.5825 19.4911 32.7022 19.9547C32.7906 20.2972 32.52 20.6814 32.3952 20.9816C32.1262 21.6288 31.8548 22.2749 31.58 22.9196C29.4434 27.9317 27.0948 32.8478 24.5694 37.6754C24.4429 37.9173 24.1506 38.0232 23.8992 37.9169L13.6914 33.5991" fill="white"/>
<path d="M17.0141 14.795C19.0725 12.6211 25.4486 5.54212 27.507 3.36816L17.0141 14.795Z" fill="white"/>
<path d="M27.6195 3.54738C27.4661 3.47484 27.306 3.39692 27.2065 3.25935C27.1071 3.12177 27.0947 2.90541 27.226 2.79787C27.3715 2.67874 27.5942 2.75507 27.7413 2.8722C27.8591 2.96604 27.9623 3.09123 27.985 3.24014C28.0078 3.38905 27.9267 3.5599 27.7812 3.59896C27.6357 3.63802 27.4641 3.48748 27.5145 3.34551" fill="white"/>
<path d="M15.644 18.2625C15.7793 19.2776 16.8916 20.046 17.8888 19.8134C18.3846 19.6977 18.8502 19.3759 19.3552 19.4397C20.6356 19.6014 20.6219 21.8247 21.8598 22.1893C22.8795 22.4896 24.0764 21.2796 24.9245 21.9203C25.2776 22.187 25.3728 22.6658 25.5651 23.0643C25.8839 23.7253 26.5378 24.2137 27.262 24.3318C27.9863 24.4499 28.7615 24.1947 29.2738 23.6693" fill="white"/>
<path d="M13.7751 23.3653C13.8684 24.1264 13.9686 24.9095 14.3434 25.5784C14.7183 26.2473 15.4399 26.7819 16.2023 26.7003C16.6572 26.6516 17.0599 26.398 17.4827 26.2231C17.9055 26.0482 18.4218 25.9602 18.7974 26.2215C19.5958 26.7766 19.1112 28.365 20.0026 28.7535C20.6262 29.0253 21.2868 28.3951 21.9671 28.3956C22.5066 28.396 22.9622 28.7934 23.2972 29.2164C23.6322 29.6394 23.9152 30.1227 24.3624 30.4246C24.8096 30.7265 25.5003 30.768 25.8268 30.3384" fill="white"/>
<path d="M32.2123 19.0776C31.9634 18.9688 31.7083 18.891 31.5154 18.8039C29.515 17.8581 27.2283 16.7754 24.7581 15.6056C16.0177 11.4771 20.2986 13.5007 19.0461 12.9083C20.0071 11.9411 21.1641 10.7405 22.1936 9.65504C22.4669 9.69879 22.7295 9.77735 22.9941 9.87276C25.4613 10.7949 25.0614 10.7988 27.8861 8.81357C28.0654 8.68661 30.3562 7.06203 30.5497 6.86169C30.8409 6.53296 30.7629 6.01066 30.3971 5.78522C30.2089 5.66527 26.9797 4.69889 26.593 4.82013C26.7045 4.68414 27.1777 4.1368 27.4119 3.78031C27.4133 3.77811 27.4141 3.77651 27.4155 3.77439C27.7857 4.16324 28.4322 3.7595 28.3364 3.17024C28.2634 2.70769 27.7298 2.33078 27.2907 2.43124C26.798 2.54426 26.7088 3.19291 27.1362 3.47456C26.4882 4.02702 26.0342 4.50682 26.0654 4.47689C26.1136 4.41169 26.1214 4.25252 26.0053 3.77925C25.9247 3.45101 25.7849 2.97242 25.5584 2.2712C25.0515 0.745881 25.1645 1.08505 25.0891 0.863645C24.914 0.28178 24.1516 0.169443 23.8129 0.655605C23.2944 1.40658 21.1294 4.62223 20.772 5.25425C20.1388 6.3951 20.6845 6.89707 21.4158 8.3496C21.553 8.61799 21.6424 8.84008 21.6881 8.99788C21.7099 9.06502 21.7214 9.11766 21.7308 9.15966C20.6917 10.3263 19.5407 11.6453 18.6354 12.7123C17.8762 12.3573 16.8573 11.8438 16.5074 11.7821C16.327 11.7634 16.1434 11.8101 16.0034 11.919C15.8378 12.0486 15.8046 12.1549 15.7141 12.3296V12.3328L15.7135 12.3338C13.217 14.1897 4.09869 22.9224 1.92126 25.0803C1.27467 25.718 0.887284 26.1271 0.920495 26.1644C0.930312 26.1754 0.981373 26.1494 1.0612 26.0973C1.42326 26.7265 6.67719 32.2326 9.23945 34.8163C14.144 39.762 14.361 39.7519 14.5023 39.6119C14.6435 39.4718 14.6554 39.2549 9.7508 34.3092C7.20255 31.7396 1.78577 26.4834 1.11057 26.0646C1.31014 25.9273 1.65591 25.6576 2.10868 25.2888C5.67733 22.3672 12.7108 15.8948 15.0524 13.6437C15.0521 13.6443 15.0517 13.6449 15.0514 13.6456C10.5193 22.6671 7.59055 28.8049 6.97186 29.8296C6.71008 30.3252 6.66232 30.7196 7.23008 31.0523C7.59098 31.2607 7.95186 31.3105 8.22876 31.4381C8.88933 31.7326 18.1594 35.771 18.1905 35.7843C17.7408 36.234 14.5982 39.1965 14.6843 39.2905C14.7968 39.4255 18.4994 36.1951 18.707 36.0114C23.463 38.081 23.8055 38.2441 23.9772 38.267C24.3006 38.3087 24.5966 38.1807 24.7768 37.9466C25.85 36.5496 32.9478 21.0856 33.0679 20.2443C33.1636 19.6596 32.743 19.3363 32.2123 19.0776ZM27.6671 3.28877L27.6663 3.28892L27.6601 3.28983H27.66C27.663 3.28939 27.6655 3.28903 27.6671 3.28877ZM27.3954 3.02198C27.4007 3.04909 27.407 3.08024 27.4209 3.07275C27.4501 3.08848 27.4947 3.11943 27.5265 3.15224C27.62 3.2417 27.6119 3.26305 27.6311 3.2942C27.6169 3.2964 27.6246 3.29523 27.6359 3.29352C27.6303 3.29219 27.6637 3.30567 27.6842 3.32511C27.7067 3.34422 27.7185 3.36586 27.7195 3.36985H27.7196L27.7209 3.37449C27.6562 3.42021 27.6375 3.38778 27.5186 3.34707C27.4453 3.25878 27.3391 3.12305 27.3954 3.02198ZM26.4957 4.93004C26.472 5.02027 26.5007 5.11731 27.0808 5.36294C27.8179 5.67507 29.1763 6.1124 30.0107 6.38249C30.0113 6.38454 30.0117 6.3842 30.0117 6.3842C30.0117 6.3842 30.0117 6.38587 30.0112 6.38701C30.012 6.38647 30.0121 6.38644 30.0112 6.38708C30.0111 6.38739 30.0115 6.38765 30.0111 6.38784C30.007 6.3905 30.0077 6.38982 30.0091 6.38868C30.002 6.39403 29.9764 6.41313 29.895 6.47295C26.5069 8.96712 25.7281 9.74641 25.2396 9.92483C24.5911 10.1789 23.1763 9.45852 22.3333 9.53446C22.3222 9.53518 22.3145 9.53723 22.3041 9.53822C23.4556 8.32615 24.2147 7.49051 25.1055 6.50675C25.2093 6.56428 25.4147 6.6069 25.5159 6.6372C25.7666 6.69705 25.799 6.64533 25.8394 6.54841C25.8761 6.46376 25.9109 6.36232 25.5859 6.28397C25.513 6.26874 25.4025 6.26977 25.301 6.28963C25.3015 6.28902 25.302 6.28845 25.3025 6.28789C25.8027 5.73493 26.1942 5.28756 26.4957 4.93004ZM21.2746 7.2328C20.6756 5.68051 20.7691 6.36942 24.0121 1.63668C24.1505 1.43418 24.3072 1.20708 24.4058 1.06409L24.4069 1.06466C24.4335 1.13944 24.9207 2.45948 24.9322 2.49071C25.1931 3.17989 25.3827 3.64101 25.5247 3.94772C25.8088 4.56109 25.9027 4.5568 25.9965 4.52391C26.017 4.51673 26.036 4.50727 26.0525 4.49197C25.7358 4.81796 25.5674 4.98106 24.7551 5.84598C24.7137 5.66285 24.6346 5.43286 24.5716 5.29922C24.369 4.86935 24.2918 4.89476 24.2019 4.93714C24.1119 4.97952 24.0433 5.02289 24.2459 5.45276C24.319 5.60801 24.4784 5.86307 24.6048 6.00852C23.1131 7.61232 23.3772 7.33579 23.1464 7.58531C23.1395 7.42607 23.1028 7.22122 23.0648 7.10178C22.9443 6.72356 22.8649 6.74012 22.7702 6.77031C22.6754 6.8005 22.6012 6.8329 22.7217 7.21108C22.7696 7.36151 22.8976 7.62245 23.0006 7.7436C22.6331 8.15085 22.3524 8.46096 21.8305 9.04429C21.8305 9.04429 21.8295 9.04489 21.8293 9.0455C21.854 8.53843 21.491 7.76134 21.2746 7.2328ZM32.2745 20.3936C28.1201 30.3018 24.2726 37.5514 24.2883 37.5203C24.2586 37.5798 24.207 37.6189 24.1452 37.6354C24.0694 37.6448 14.8395 33.9845 8.41853 31.0212C8.06386 30.8625 7.72165 30.8003 7.47276 30.6479C7.2021 30.4612 7.20519 30.4021 7.38564 30.0785C8.0174 29.0857 10.8412 23.3029 15.6799 13.8416C15.6864 13.8289 16.3858 12.4542 16.3985 12.4479C16.4359 12.4385 16.3705 12.4168 16.6163 12.5132C17.6811 13.0217 17.4885 12.9251 18.1781 13.2567C17.9101 13.5694 17.542 14.0278 17.419 14.187C17.2199 13.7328 16.943 13.4434 16.7283 13.5025C16.4514 13.5772 16.3736 14.1932 16.5572 14.8776C16.7408 15.5621 17.1141 16.0567 17.391 15.9821C17.671 15.9074 17.7488 15.2914 17.5652 14.607C17.5465 14.5416 17.5279 14.4763 17.5061 14.4141C17.8435 14.1075 18.3802 13.5795 18.5328 13.4216C23.2772 15.6803 27.6919 17.7834 31.2168 19.4603C31.5388 19.601 32.2503 19.8113 32.3399 20.0172C32.3741 20.0483 32.3647 20.2008 32.2745 20.3936Z" fill="black"/>
<path d="M30.0118 6.38712V6.38702L30.0091 6.38918L30.0118 6.38712Z" fill="black"/>
<path d="M24.6223 8.1366C24.453 8.11924 24.1834 8.12768 23.962 8.1696C23.74 8.21001 23.5685 8.27826 23.5748 8.3269C23.5811 8.37681 23.7592 8.39876 23.9713 8.42405C24.1863 8.44881 24.4321 8.47711 24.5878 8.49503C25.1582 8.56453 25.1849 8.5174 25.2082 8.4127C25.2291 8.32417 25.2409 8.21221 24.6223 8.1366Z" fill="black"/>
<path d="M24.2043 29.867C24.2043 29.867 24.2043 29.867 24.2043 29.8639C23.6882 29.276 23.4611 28.6254 22.6363 28.1994C21.723 27.7597 21.0269 28.3635 20.4492 28.4515C19.4209 28.5906 19.9899 26.73 19.0648 26.0185C18.8807 25.8575 18.6057 25.7417 18.2434 25.7417C17.2031 25.7504 16.6281 26.6017 15.7639 26.4199C15.291 26.3265 14.8803 25.9968 14.6159 25.6359C14.3514 25.2719 14.2021 24.8612 14.0994 24.519C13.9065 23.819 13.8319 23.3554 13.7759 23.3648C13.7051 23.3757 13.6885 24.8987 14.283 25.863C14.7883 26.6692 15.6888 27.1827 16.6443 26.8866C17.2423 26.7089 17.6844 26.3585 18.2372 26.3732C19.3186 26.4025 18.6895 28.2505 19.6403 28.9585C20.3542 29.4842 21.1898 28.9272 21.647 28.8092C21.927 28.7252 22.1199 28.7377 22.3345 28.8372C23.1226 29.2018 23.3901 30.2467 24.335 30.7505C24.4843 30.6012 24.6305 30.455 24.7705 30.3119C24.5462 30.2255 24.3692 30.0548 24.2043 29.867Z" fill="black"/>
<path d="M15.2553 11.2928C15.3417 11.2437 14.9169 10.3346 14.6863 9.9296C14.2654 9.19045 14.1865 9.21487 14.1001 9.26408C14.0137 9.31327 13.9525 9.36864 14.3733 10.1078C14.6039 10.5128 15.1689 11.3421 15.2553 11.2928Z" fill="black"/>
<path d="M15.8876 10.5171C15.9865 10.5074 15.9986 9.79997 15.9669 9.47397C15.909 8.87906 15.8275 8.87442 15.7286 8.88403C15.6296 8.89368 15.5506 8.91392 15.6085 9.50887C15.6402 9.83487 15.7886 10.5267 15.8876 10.5171Z" fill="black"/>
<path d="M17.3762 9.71297C17.5179 9.2596 17.4439 9.22607 17.349 9.19641C17.2541 9.16674 17.1742 9.1522 17.0325 9.60557C16.9549 9.85402 16.8652 10.4112 16.9601 10.4408C17.055 10.4705 17.2986 9.96142 17.3762 9.71297Z" fill="black"/>
<path d="M32.0484 25.6582C31.8364 26.0438 31.4783 26.8248 30.721 28.3272C28.9742 31.7976 27.923 33.4109 28.0025 33.4618C28.131 33.5447 31.1036 28.9409 32.2811 25.7617C32.489 25.178 32.339 25.1137 32.0484 25.6582Z" fill="black"/>
<path d="M32.1372 28.6467C32.05 28.5989 31.9686 28.5797 31.4572 29.5141C31.1769 30.026 30.6461 31.1634 30.7333 31.2112C30.8206 31.2589 31.4927 30.199 31.773 29.687C32.2845 28.7527 32.2245 28.6944 32.1372 28.6467Z" fill="black"/>
</svg>
