<svg width="42" height="38" viewBox="0 0 42 38" fill="none" xmlns="http://www.w3.org/2000/svg">
<path d="M19.8181 14.3047C19.6598 14.2752 19.4915 14.239 19.3784 14.1245C19.2761 14.021 19.2377 13.8721 19.2043 13.7305C18.277 9.79782 18.8533 6.08018 19.4635 2.08598C21.6746 1.8903 23.1679 2.10241 25.379 1.90673C26.5143 1.80625 27.8248 2.41285 28.9641 2.4445C32.1115 2.53193 33.9216 2.11665 37.0669 1.97187C37.2095 1.96531 37.3611 1.95815 37.4855 2.02817C37.6612 2.12706 37.7257 2.34464 37.7665 2.54212C37.983 3.58955 37.9733 4.66876 37.9627 5.73826C37.9348 8.56789 37.9069 11.3975 37.879 14.2271C37.877 14.4284 37.8666 14.6511 37.7263 14.7955C37.579 14.947 37.343 14.9569 37.1317 14.957C33.8915 14.9576 31.7268 14.9582 28.4866 14.9588C28.0991 14.9588 27.6831 14.9677 27.3687 15.1941C27.1948 15.3194 27.0702 15.4997 26.9384 15.6687C26.6429 16.0479 25.4003 17.4378 24.8314 17.2003C24.2709 16.9664 24.6725 15.2631 24.5147 14.7785C22.9527 14.592 21.3819 14.5954 19.8181 14.3047V14.3047Z" fill="#F85F4C"/>
<path d="M22.5018 7.3554C21.9727 7.32384 21.4877 7.83428 21.5199 8.36328C21.5521 8.89228 22.0665 9.33405 22.5961 9.31365C23.1256 9.29325 23.5953 8.83869 23.6621 8.31294C23.7288 7.78718 23.4075 7.2441 22.9266 7.02144C22.6794 6.907 22.3601 6.8813 22.1558 7.06146C21.9515 7.24163 22.0014 7.65979 22.2696 7.70739" fill="white"/>
<path d="M27.9691 7.2658C27.4401 7.23424 26.955 7.74469 26.9872 8.27368C27.0194 8.80268 27.5338 9.24445 28.0634 9.22405C28.593 9.20365 29.0627 8.74909 29.1294 8.22334C29.1961 7.69759 28.8749 7.1545 28.3939 6.93184C28.1467 6.8174 27.8275 6.7917 27.6231 6.97186C27.4188 7.15203 27.4687 7.57019 27.7369 7.61779" fill="white"/>
<path d="M33.3468 7.1762C32.8177 7.14464 32.3327 7.65509 32.3649 8.18408C32.3971 8.71308 32.9115 9.15485 33.4411 9.13445C33.9706 9.11405 34.4403 8.6595 34.5071 8.13374C34.5738 7.60798 34.2525 7.0649 33.7716 6.84224C33.5244 6.7278 33.2051 6.7021 33.0008 6.88226C32.7965 7.06243 32.8464 7.48059 33.1146 7.52819" fill="white"/>
<path d="M19.9773 9.04055C19.8779 9.03599 19.799 8.99756 19.8754 7.33521C19.9173 6.42436 20.0876 4.47323 20.187 4.47779C20.2863 4.48235 20.277 6.44092 20.2351 7.35177C20.1587 9.01412 20.0766 9.04511 19.9773 9.04055V9.04055Z" fill="white"/>
<path d="M20.3847 12.9811C20.2852 12.9811 20.2046 12.9732 20.2046 12.5952C20.2046 12.3883 20.2852 11.944 20.3847 11.944C20.4841 11.944 20.5647 12.3883 20.5647 12.5952C20.5647 12.9732 20.4841 12.9811 20.3847 12.9811Z" fill="white"/>
<path d="M6.36228 26.7896C6.54731 27.5399 6.64096 27.5557 6.7391 27.5399C7.08273 27.4846 6.77337 26.0722 6.27782 21.5326C5.67363 15.6197 5.7673 12.6644 5.64341 11.6082C9.39963 11.1987 12.8956 10.6583 18.5213 10.7656C18.5591 11.1573 18.6478 11.8047 18.6643 11.9069C18.5968 11.8858 18.4547 11.871 18.142 11.8695C13.9257 11.873 4.15798 13.2119 7.87432 12.9397C16.807 12.2246 18.3978 12.1632 18.6797 12.0269C18.6854 12.0582 18.9674 13.9627 19.2146 14.6033C19.1096 14.6479 19.0949 14.7145 19.0859 14.7871C19.0736 14.8857 19.0717 14.9762 19.3079 15.0698C19.5445 15.16 20.0179 15.2705 20.9756 15.3127C21.5029 15.3385 22.325 15.2686 22.9937 15.1786C23.6656 15.0895 24.2132 15.0034 24.2139 14.9028C24.2146 14.8046 23.6615 14.7107 22.9774 14.6695C22.2905 14.63 21.4995 14.6177 21.0016 14.593C20.2216 14.5587 19.5934 14.5167 19.3146 14.5743C19.3146 14.574 19.3146 14.5738 19.3146 14.5735C19.3336 14.0794 19.1531 12.4673 19.0564 10.0843C18.8722 5.46044 19.0942 2.28136 18.8946 1.68123C19.507 1.7186 21.2447 1.67683 23.2937 1.64948C32.9861 1.4887 37.9899 2.04784 38.0166 1.54816C38.0219 1.44881 37.9901 1.35706 37.0744 1.2451C34.2523 0.926826 28.5654 0.782601 23.2737 1.14059C21.1556 1.277 19.3796 1.46248 18.8335 1.57672C18.8331 1.57641 18.8327 1.57566 18.8324 1.57535C18.8044 1.55363 18.7763 1.55044 18.7452 1.5474C18.6488 1.54117 18.5555 1.56289 18.4559 2.18512C18.3657 2.81053 18.2444 4.04252 18.2568 6.46289C18.263 7.41491 18.3253 8.75886 18.4497 10.0843C14.9172 10.0843 11.1305 10.401 7.45505 11.1203C5.62966 11.5095 5.68766 11.5695 5.64087 11.5841C5.45185 10.0859 4.66278 19.4631 6.36228 26.7896V26.7896Z" fill="black"/>
<path d="M35.4203 34.6842C35.4203 34.6418 35.4079 34.601 35.2677 34.5629C35.6464 34.4408 35.2844 33.9576 33.9051 31.6274C33.1763 30.4025 31.6769 27.7615 31.1057 27.1355C31.099 27.1208 31.0876 27.1064 31.0665 27.0927C31.0908 26.9754 31.3919 27.8422 31.871 21.4211C31.983 19.8873 32.1075 17.4762 32.207 15.4509C32.2101 15.3919 32.2132 15.3328 32.2164 15.2767C32.9475 15.2984 33.635 15.3141 34.167 15.3203C36.5439 15.3388 37.4866 15.286 37.8599 15.1957C37.8603 15.1956 37.8605 15.1956 37.8609 15.1954C37.8903 15.2491 37.9279 15.2615 37.9682 15.2673C38.0666 15.2814 38.1591 15.2697 38.3109 14.6408C38.4478 14.0111 38.6855 12.7627 38.7944 10.2862C38.8181 9.60789 38.8312 8.7341 38.7979 7.807C38.7663 6.87974 38.6956 5.90008 38.5992 5.00913C38.4068 3.22616 38.1106 1.80383 38.0166 1.81705C37.9137 1.83087 38.0304 3.27234 38.0913 5.04558C38.122 5.93228 38.1394 6.90162 38.1343 7.81611C38.131 8.73061 38.098 9.58981 38.0748 10.2576C37.9671 12.7089 37.8001 14.0316 37.803 14.7725C37.3919 14.6823 36.4304 14.6171 34.1732 14.5984C33.6475 14.5954 32.9693 14.5984 32.2475 14.6078C32.0981 14.6109 31.9457 14.6141 31.7933 14.6171C30.1147 14.6513 28.3339 14.7289 27.7381 14.8315C27.7288 14.8249 27.7191 14.819 27.7093 14.8132C27.6214 14.7614 27.5408 14.7371 27.279 15.0186C27.1493 15.1605 26.9599 15.3677 26.6796 15.6746C26.3946 15.9741 26.0072 16.3698 25.429 16.7964C25.1884 16.9719 24.8874 17.1747 24.5433 17.346C24.4572 17.3884 24.3696 17.4325 24.2781 17.4674C24.2531 17.4803 24.2583 17.4843 24.2411 17.4874C24.2149 17.4938 24.1824 17.4609 24.1991 17.425C24.2022 17.4179 24.1984 17.4224 24.2072 17.4051L24.2395 17.3418L24.3004 17.2139C24.3387 17.128 24.3772 17.043 24.41 16.9567C24.4792 16.7856 24.5336 16.6134 24.5808 16.4466C24.672 16.1119 24.7225 15.7952 24.7386 15.5242C24.7724 14.9808 24.6906 14.6322 24.6339 14.6344C24.5677 14.6352 24.5309 14.9787 24.4017 15.4705C24.3381 15.7165 24.2468 15.9984 24.1252 16.2905C24.0629 16.4361 23.9957 16.5854 23.917 16.7322C23.8793 16.8063 23.8368 16.8787 23.7951 16.952L23.6362 17.211C23.4062 17.5452 23.5845 18.0225 23.9529 18.1402C24.1274 18.2119 24.3414 18.1685 24.515 18.0931C24.6259 18.0579 24.7301 18.0132 24.8324 17.9691C25.2412 17.7914 25.5861 17.5731 25.8537 17.3779C26.4959 16.9038 26.9002 16.4589 27.1816 16.1086C27.461 15.7554 27.6158 15.4909 27.7019 15.3022C27.7667 15.1578 27.7949 15.0599 27.8009 14.9908C28.2092 15.059 29.0384 15.1213 29.9981 15.1772H29.9987C29.7386 15.6897 29.3705 23.5619 29.3921 24.825C28.5573 24.6098 8.53851 25.3294 7.9326 25.4863C7.95968 25.1738 7.90169 24.1693 7.62867 20.9057C7.32491 17.2624 6.83088 10.5536 6.88993 13.848C6.9584 17.4191 7.39736 23.0898 7.6788 25.0175C7.76805 25.6151 7.81514 25.6348 7.86466 25.6301C7.89474 25.6272 7.91973 25.6169 7.9315 25.4998C8.50182 25.6235 28.5675 25.1939 29.395 24.9298C29.4606 26.5281 30.3253 15.7369 30.1233 15.1833C30.6365 15.2114 31.1806 15.2363 31.7186 15.255C31.7124 15.3047 31.7061 15.3545 31.6999 15.4073C31.3784 18.2313 30.8507 24.8155 30.8444 26.3117C30.8412 26.7816 30.8755 26.9651 30.9284 27.0398C30.9295 27.0413 30.9307 27.0423 30.9319 27.0438C30.4438 26.9303 28.6494 26.8946 22.0396 27.0853C8.0289 27.5142 6.73769 27.5303 6.7365 27.6285C6.73643 27.6388 6.77137 27.6494 6.82685 27.6602C6.35589 27.9539 4.21385 30.4399 3.20339 31.6662C2.19645 32.8853 1.68224 33.5019 1.454 33.851C1.22294 34.1968 1.27687 34.271 1.34948 34.3389C1.42209 34.4068 1.49858 34.4567 1.82936 34.1951C2.1565 33.9312 2.74257 33.355 3.75885 32.1246C4.81629 30.8411 6.83635 28.0534 6.9158 27.6744C10.2862 28.1399 29.8702 27.7938 31.0149 27.3032C31.2367 27.9382 32.4782 30.6372 33.2841 31.9921C33.566 32.4684 34.6442 34.248 35.1179 34.5317C32.5909 34.113 1.35936 34.3405 1.35882 34.621C1.35882 34.6216 1.3608 34.6224 1.3611 34.623C1.26707 34.6418 1.19469 34.8626 1.18306 35.1421C1.16841 35.4289 1.22636 35.7684 1.30277 35.9703C1.44162 36.3396 1.58008 36.4974 1.68224 36.5553C1.78782 36.6124 1.86742 36.5702 1.95401 36.5213C1.96722 36.5138 1.97938 36.5059 1.99195 36.4983C2.32862 36.5419 3.09682 36.5948 4.16536 36.6512C5.62726 36.7262 7.64751 36.8079 9.87929 36.8737C16.0963 37.0639 27.778 37.1985 33.9343 36.8682C35.5372 36.7766 35.5999 36.6856 35.5981 36.5861C35.5974 36.5451 35.5838 36.5058 35.4568 36.471C35.5236 36.4048 35.558 36.2374 35.5942 36.0484C35.7857 34.9653 35.8618 34.792 35.4203 34.6842V34.6842ZM4.17166 36.3709C3.19329 36.3768 2.46594 36.3899 2.08974 36.4127C2.10949 36.3855 2.12532 36.3548 2.1306 36.3139C2.14739 36.2026 2.09673 36.0358 1.97839 35.721C1.91337 35.5484 1.7923 35.2828 1.68353 35.0481C1.59766 34.8674 1.51605 34.7064 1.43706 34.6461C3.09594 34.9215 32.7769 35.236 35.139 34.8328C34.8642 35.2897 34.9836 36.1309 35.2784 36.4365C34.0775 36.2667 30.4971 36.3436 4.17166 36.3709V36.3709Z" fill="black"/>
<path d="M23.5348 32.7326C23.4258 32.3403 23.0781 32.0557 22.4648 32.0803C22.1669 32.0952 20.4825 32.3269 18.3091 32.3055C17.5003 32.3038 16.6698 32.2488 15.8657 32.1944C15.0287 32.1566 14.2176 32.3731 14.0383 33.1849C13.9679 33.4723 14.0422 33.7263 14.1442 33.854C14.2467 33.9839 14.3377 34.0072 14.3489 33.9915C14.3679 33.9696 14.3135 33.9058 14.2715 33.7843C14.148 33.4322 14.3933 32.8995 14.8348 32.755C15.5146 32.5073 16.2784 32.8765 18.2885 32.9687C19.1116 33.0137 19.889 33.0043 20.4913 32.9695C21.6644 32.9033 22.2418 32.7888 22.5018 32.7671C23.1162 32.7128 22.9288 33.1207 23.0424 33.7383C23.0929 34.0631 23.2514 34.2414 23.3414 34.2802C23.4376 34.3242 23.4708 34.2894 23.5051 34.2539C23.611 34.1447 23.5277 34.0818 23.5503 33.7008C23.5632 33.4125 23.632 33.0782 23.5348 32.7326V32.7326Z" fill="black"/>
<path d="M21.4096 7.87883C21.1073 8.4342 21.3838 9.18526 22.0455 9.50274C22.6682 9.81739 23.4608 9.53417 23.836 8.88401C24.4037 7.91807 23.6355 6.65296 22.6289 6.60339C22.3416 6.58607 22.06 6.69226 21.8972 6.90022C21.7363 7.12186 21.7527 7.31737 21.782 7.45773C21.6441 7.55161 21.5083 7.68939 21.4096 7.87883V7.87883ZM21.9447 7.73512C22.0298 7.80925 22.1207 7.8328 22.1649 7.82201C22.2537 7.80576 22.2597 7.75487 22.2696 7.70732C22.2912 7.6048 22.2568 7.58499 22.2729 7.4749C22.4037 7.41003 22.5011 7.39226 22.5018 7.35534C22.5085 7.33666 22.451 7.30126 22.3484 7.29063C22.3491 7.29033 22.3499 7.28942 22.3506 7.28926C22.8223 7.0916 23.5657 7.8652 23.2199 8.54024C23.0499 8.8718 22.6656 9.09342 22.2826 8.95465C22.0933 8.88766 21.922 8.74182 21.8305 8.57153C21.6616 8.28807 21.7722 7.94886 21.9447 7.73512V7.73512Z" fill="black"/>
<path d="M26.8769 7.78921C26.368 8.72425 27.4947 9.90183 28.5644 9.44199C29.182 9.19093 29.5585 8.548 29.491 7.94704C29.3873 7.02296 28.6094 6.46431 27.9496 6.51621C27.7461 6.53155 27.5537 6.61662 27.4233 6.74483C27.2954 6.87152 27.2449 7.02571 27.2336 7.14071C27.225 7.22684 27.2357 7.29945 27.2525 7.36614C27.1135 7.46002 26.9764 7.59826 26.8769 7.78921V7.78921ZM27.4118 7.64581C27.5 7.72319 27.631 7.76691 27.7002 7.70277C27.7255 7.67907 27.7311 7.64884 27.7369 7.6177C27.7582 7.54099 27.7284 7.47187 27.7369 7.3871C27.8693 7.32072 27.9684 7.30295 27.9692 7.26573C27.9757 7.2475 27.9202 7.21347 27.8221 7.20193C27.8237 7.2001 27.8244 7.19843 27.8261 7.19646C27.858 7.18218 27.9046 7.16562 27.9821 7.16896C28.4873 7.19192 28.9814 7.87634 28.6872 8.45062C28.6093 8.60269 28.4701 8.75034 28.2997 8.83344C27.6564 9.14997 26.8331 8.36299 27.4118 7.64581V7.64581Z" fill="black"/>
<path d="M32.8905 9.32333C33.8383 9.80272 34.9849 8.89223 34.8687 7.8574C34.8216 7.3842 34.5876 7.02964 34.328 6.79601C34.0663 6.56252 33.7607 6.43826 33.4738 6.42413C32.9572 6.39298 32.5167 6.74998 32.627 7.27847C31.8555 7.80386 32.0257 8.90871 32.8905 9.32333V9.32333ZM32.7897 7.55586C32.9672 7.7105 33.163 7.67156 33.1147 7.38268C33.1116 7.352 33.1133 7.32723 33.1179 7.29564C33.2487 7.23077 33.3461 7.213 33.3468 7.17608C33.3535 7.1574 33.2959 7.12185 33.1932 7.11122C33.194 7.11107 33.1948 7.10985 33.1956 7.10985C33.4155 7.01869 33.678 7.15058 33.851 7.31584C34.3392 7.78102 34.2012 8.48844 33.6774 8.74379C33.0317 9.06162 32.2131 8.27038 32.7897 7.55586V7.55586Z" fill="black"/>
<path d="M4.23273 11.7542C4.3241 11.5775 3.02558 10.7244 2.38596 10.3936C1.21877 9.78972 1.12025 9.92021 1.02888 10.0969C0.937505 10.2735 0.887831 10.4294 2.05511 11.0331C2.69472 11.364 4.14136 11.9309 4.23273 11.7542Z" fill="black"/>
<path d="M5.07864 9.99891C5.25091 9.89956 4.63408 8.50685 4.28157 7.89541C3.63831 6.77949 3.48518 6.83676 3.31284 6.93595C3.14058 7.0353 3.01434 7.13921 3.65768 8.25514C4.01018 8.86657 4.9063 10.0981 5.07864 9.99891Z" fill="black"/>
<path d="M7.03084 9.46037C7.12608 9.48194 7.3241 9.02378 7.46932 8.42754C7.6185 7.83312 7.7 7.1041 7.69992 6.64017C7.70099 5.79266 7.60597 5.36474 7.52371 5.15388C7.4356 4.94288 7.34537 4.94592 7.24662 4.95731C7.14788 4.96871 7.05947 4.98876 7.01709 5.20508C6.96909 5.42185 6.98086 5.83277 6.97979 6.63592C6.97972 7.076 6.98147 7.76916 6.96468 8.35979C6.952 8.94965 6.93225 9.43835 7.03084 9.46037V9.46037Z" fill="black"/>
<path d="M40.8511 14.6472C40.7547 14.6235 40.6623 14.6183 40.5234 14.8691C40.2591 15.3468 40.024 15.8595 39.4993 16.4482C38.5536 17.4512 37.9105 17.7929 36.7317 18.1792C36.4765 18.2497 36.3108 18.3043 36.3123 18.3558C36.3158 18.5138 38.351 18.7321 40.0363 16.928C40.4444 16.4701 40.6694 16.056 40.8054 15.7353C40.9027 15.5193 41.004 15.1747 41.0095 15.0209C41.0334 14.699 40.9475 14.6707 40.8511 14.6472V14.6472Z" fill="black"/>
<path d="M39.9892 18.0366C39.7757 18.2526 39.4324 18.8296 39.5739 18.9693C39.7154 19.1091 40.2881 18.7588 40.5015 18.5428C40.8909 18.1487 40.7844 18.027 40.6429 17.8873C40.5015 17.7475 40.3787 17.6426 39.9892 18.0366Z" fill="black"/>
<path d="M14.7786 11.871L14.8376 11.8608L14.8815 11.8061C15.0005 11.6582 14.9849 11.441 14.858 11.3059C14.7456 11.1864 14.5658 11.168 14.444 11.2441C14.3843 11.2163 14.1872 11.4169 14.1853 11.4917C14.2658 11.7718 14.5364 11.9129 14.7786 11.871V11.871ZM14.4856 11.4965C14.4731 11.4934 14.4581 11.4861 14.4427 11.4735C14.4414 11.4719 14.442 11.4698 14.4411 11.4681C14.4691 11.4835 14.4973 11.4953 14.5245 11.5035C14.5435 11.5099 14.5684 11.5157 14.5866 11.5277C14.5873 11.5283 14.5871 11.5285 14.5876 11.5291C14.5777 11.5274 14.5687 11.528 14.5586 11.5251C14.534 11.5204 14.4958 11.4979 14.4856 11.4965Z" fill="black"/>
<path d="M17.6366 11.3995C17.6366 11.3 17.6241 11.2195 17.029 11.2195C16.703 11.2195 16.0032 11.3 16.0032 11.3995C16.0032 11.4988 16.703 11.5795 17.029 11.5795C17.6241 11.5795 17.6366 11.4988 17.6366 11.3995Z" fill="black"/>
<path d="M14.9653 15.107C15.3745 14.973 15.6633 15.0301 15.675 14.973C15.6914 14.9378 15.4088 14.771 14.9048 14.8333C13.7919 14.9858 12.9816 16.0637 13.351 17.2623C13.755 18.5424 15.1272 19.1057 16.2832 18.4343C17.1205 17.9536 17.523 17.0363 17.2185 16.1037C16.9297 15.25 16.219 14.8445 15.8939 14.8961C15.8095 14.9104 15.792 14.9545 15.7767 15.0017C15.7274 15.1541 15.8328 15.1946 16.0895 15.447C16.833 16.2393 16.8347 17.285 15.9255 17.8093C15.5574 18.0285 14.9529 18.1373 14.4721 17.7852C13.9859 17.4555 13.6886 16.7617 13.8648 16.1787C14.0311 15.5999 14.5678 15.2279 14.9653 15.107V15.107Z" fill="black"/>
<path d="M11.7118 23.1696C11.7237 23.4394 18.8666 23.4264 19.5301 22.9897C19.5674 23.0449 19.6095 23.0564 19.654 23.0601C19.7035 23.064 19.7509 23.0636 19.7972 22.9873C19.8437 22.9114 19.8967 22.757 19.8929 22.4524C19.8658 21.5823 19.4062 20.7597 18.7791 20.1829C16.7846 18.3542 13.2724 19.0743 11.5454 21.8987C11.2734 22.3396 11.1656 22.6422 11.2051 22.6651C11.2511 22.6925 11.4404 22.4398 11.7709 22.0651C12.0985 21.69 12.577 21.1931 13.19 20.7749C15.4836 19.176 18.6786 19.6407 19.4149 22.6247C18.3767 22.3318 11.7001 22.9027 11.7118 23.1696V23.1696Z" fill="black"/>
</svg>
